<svg width="767" height="282" viewBox="0 0 767 282" fill="none" xmlns="http://www.w3.org/2000/svg">
<g clip-path="url(#clip0_767_111)">
<path d="M728.099 17.7217C739.494 17.7217 748.706 27.0623 748.706 38.6328C748.706 39.5692 748.647 40.447 748.53 41.3776L722.053 246.058C720.731 256.458 711.975 264.224 701.616 264.224H38.6068C27.206 264.224 18 254.884 18 243.313C18 242.377 18.0585 241.499 18.1697 240.568L44.6524 35.9464C45.9751 25.5465 54.7305 17.7743 65.0895 17.7743H728.111V17.7158L728.099 17.7217Z" fill="#1F2C34"/>
<path d="M748.706 38.633C748.706 27.0667 739.501 17.7285 728.111 17.7219V17.716L728.1 17.7219C728.104 17.7219 728.107 17.7219 728.111 17.7219V17.7746H65.0898V-0.225406H726.658C727.372 -0.283087 728.087 -0.295765 728.801 -0.268375C750.047 0.109227 766.706 17.598 766.706 38.633C766.706 40.3668 766.594 41.9961 766.39 43.6242C766.387 43.6449 766.385 43.666 766.382 43.6867L739.904 248.367C737.438 267.606 721.159 282.225 701.616 282.225H38.6064C17.0177 282.225 0.000105842 264.576 0 243.314C0 241.583 0.111102 239.987 0.296875 238.433L0.318359 238.258L26.7959 33.676L26.9209 32.7765C29.754 13.9709 45.8329 -0.225406 65.0898 -0.225406V17.7746L64.6055 17.7805C54.459 18.0181 45.9544 25.709 44.6523 35.9465L18.1699 240.569L18.0967 241.258C18.0333 241.942 18 242.611 18 243.314L18.0068 243.854C18.2836 254.994 27.0976 263.937 38.0742 264.218L38.6064 264.225H701.616L702.101 264.219C712.247 263.981 720.752 256.296 722.054 246.059L748.53 41.3781C748.618 40.6803 748.673 40.0118 748.695 39.3264L748.706 38.633Z" fill="white"/>
<path d="M146.684 239.665C131.844 239.665 118.385 237.391 106.308 232.843C94.4331 228.12 84.4198 221.473 76.2687 212.902C68.2943 204.33 62.5742 194.185 59.1085 182.465C55.6427 170.745 54.9118 157.8 56.9157 143.631C58.9197 129.462 63.3121 116.518 70.093 104.797C76.8739 93.0774 85.4638 82.9317 95.8628 74.3604C106.438 65.789 118.319 59.2293 131.506 54.6812C144.894 49.9582 159.008 47.5967 173.848 47.5967C192.045 47.5967 207.676 50.7453 220.742 57.0427C233.985 63.34 244.358 72.4362 251.863 84.3311L207.442 119.229C202.93 112.407 197.577 107.159 191.384 103.486C185.391 99.6372 178.243 97.713 169.94 97.713C163.403 97.713 157.337 98.7625 151.74 100.862C146.143 102.961 141.117 106.022 136.661 110.045C132.382 114.069 128.774 118.966 125.838 124.739C122.926 130.337 120.975 136.634 119.986 143.631C118.996 150.628 119.153 157.013 120.457 162.785C121.785 168.383 124.02 173.194 127.161 177.217C130.478 181.24 134.639 184.301 139.642 186.4C144.645 188.5 150.415 189.549 156.952 189.549C165.255 189.549 172.935 187.712 179.991 184.039C187.249 180.191 194.098 174.855 200.54 168.033L235.089 202.931C224.245 214.651 211.298 223.747 196.25 230.219C181.402 236.517 164.88 239.665 146.684 239.665Z" fill="white"/>
<path d="M336.666 239.665C321.649 239.665 308.027 237.304 295.798 232.581C283.746 227.858 273.644 221.211 265.493 212.639C257.367 203.893 251.483 193.66 247.84 181.94C244.374 170.22 243.619 157.45 245.573 143.631C247.552 129.637 251.92 116.867 258.676 105.322C265.634 93.6022 274.4 83.4565 284.976 74.8851C295.576 66.1388 307.57 59.4042 320.958 54.6812C334.523 49.9582 348.814 47.5967 363.83 47.5967C379.024 47.5967 392.647 49.9582 404.699 54.6812C416.751 59.4042 426.84 66.1388 434.966 74.8851C443.117 83.4565 448.926 93.6022 452.391 105.322C456.059 116.867 456.903 129.637 454.923 143.631C452.969 157.45 448.513 170.22 441.555 181.94C434.774 193.66 426.084 203.893 415.483 212.639C404.908 221.211 392.926 227.858 379.538 232.581C366.15 237.304 351.859 239.665 336.666 239.665ZM343.754 189.549C349.584 189.549 355.121 188.5 360.364 186.4C365.785 184.301 370.622 181.328 374.876 177.479C379.332 173.456 383.015 168.645 385.927 163.048C388.864 157.275 390.839 150.803 391.853 143.631C392.868 136.459 392.711 130.074 391.382 124.477C390.079 118.704 387.756 113.894 384.413 110.045C381.272 106.022 377.289 102.961 372.462 100.862C367.812 98.7625 362.573 97.713 356.742 97.713C350.912 97.713 345.287 98.7625 339.867 100.862C334.624 102.961 329.774 106.022 325.318 110.045C321.064 113.894 317.469 118.704 314.532 124.477C311.621 130.074 309.658 136.459 308.643 143.631C307.629 150.803 307.773 157.275 309.077 163.048C310.405 168.645 312.64 173.456 315.781 177.479C319.123 181.328 323.12 184.301 327.769 186.4C332.596 188.5 337.924 189.549 343.754 189.549Z" fill="white"/>
<path d="M464.634 235.467L490.611 51.7949H542.021L599.262 171.707H572.232L661.271 51.7949H712.681L687.234 235.467H630.259L643.682 136.809H652.692L591.787 218.937H564.227L524.432 136.809H535.562L521.609 235.467H464.634Z" fill="white"/>
</g>
<defs>
<clipPath id="clip0_767_111">
<rect width="767" height="282" fill="white"/>
</clipPath>
</defs>
</svg>
